<svg
        xmlns="http://www.w3.org/2000/svg"
        version="1.1"
        width="28"
        height="28"
        viewBox="0 0 520 520"
      >
        <path
          fill="#127c89"
          fillRule="evenodd"
          d="M231.829,156.063c-37.311,9.025-66.741,38.455-75.766,75.766c-0.867,3.585,1.876,7.036,5.565,7.036h71.524
			c3.154,0,5.712-2.558,5.712-5.712v-71.524C238.865,157.94,235.414,155.196,231.829,156.063z"
          clipRule="evenodd"
        />
        <path
          fill="#127c89"
          fillRule="evenodd"
          d="M350.372,273.136h-71.524c-3.154,0-5.712,2.558-5.712,5.712v71.524c0.001,3.689,3.451,6.433,7.036,5.566
          c37.311-9.025,66.741-38.455,75.765-75.766C356.804,276.587,354.061,273.136,350.372,273.136z"
          clipRule="evenodd"
        />
        <path
          fill="#127c89"
          fillRule="evenodd"
          d="M511.979,232.625C500.953,109.511,402.941,11.09,279.376,0.023c-3.348-0.3-6.24,2.335-6.24,5.697v109.323
          c0,2.8,2.033,5.182,4.798,5.627c58.056,9.375,104.019,55.339,113.395,113.395c0.447,2.765,2.827,4.798,5.628,4.798h109.323
          C509.644,238.864,512.279,235.973,511.979,232.625z"
          clipRule="evenodd"
        />
        <path
          fill="#12b8cc"
          fillRule="evenodd"
          d="M233.153,273.137h-71.524c-3.689,0-6.432,3.45-5.565,7.036c9.025,37.311,38.455,66.741,75.766,75.766
			c3.585,0.867,7.036-1.876,7.036-5.565V278.85C238.865,275.694,236.308,273.137,233.153,273.137z"
          clipRule="evenodd"
        />
        <path
          fill="#127c89"
          fillRule="evenodd"
          d="M234.066,391.33c-58.056-9.376-104.019-55.339-113.395-113.395c-0.447-2.765-2.827-4.798-5.629-4.798H5.72
          c-3.362,0-5.996,2.891-5.697,6.24C11.049,402.491,109.06,500.913,232.625,511.978c3.348,0.3,6.24-2.335,6.24-5.697V396.957
          C238.865,394.157,236.832,391.776,234.066,391.33z"
          clipRule="evenodd"
        />
        <path
          fill="#12b8cc"
          fillRule="evenodd"
          d="M355.938,231.83c-9.025-37.311-38.455-66.741-75.765-75.766c-3.585-0.867-7.036,1.876-7.036,5.565v71.524
          c0,3.155,2.557,5.713,5.712,5.713h71.524C354.062,238.865,356.805,235.415,355.938,231.83z"
          clipRule="evenodd"
        />
        <path
          fill="#12b8cc"
          fillRule="evenodd"
          d="M506.281,273.137H396.957c-2.801,0-5.182,2.033-5.628,4.798c-9.376,58.056-55.339,104.019-113.395,113.395
          c-2.765,0.447-4.798,2.827-4.798,5.628v109.323c0,3.362,2.891,5.996,6.24,5.697c123.114-11.025,221.536-109.037,232.601-232.601
          C512.278,276.027,509.643,273.137,506.281,273.137z"
          clipRule="evenodd"
        />
        <path
          fill="#12b8cc"
          fillRule="evenodd"
          d="M232.626,0.023C109.511,11.049,11.09,109.06,0.023,232.626c-0.3,3.348,2.335,6.24,5.697,6.24h109.323
          c2.801,0,5.182-2.033,5.629-4.798c9.375-58.056,55.339-104.019,113.395-113.395c2.765-0.447,4.798-2.827,4.798-5.629V5.721
          C238.865,2.358,235.974-0.276,232.626,0.023z"
          clipRule="evenodd"
        />
      </svg>

